{"title":"Cats.And.Dogs.2.2010.TS.XviD-TA","uid":5742315,"size":760335263,"categoryP":"video","categoryS":"movies","magnet":"?xt=urn:btih:6758a198d70d85bdeaa721f4ee2717a60d1f43c2&amp;dn=Cats.And.Dogs.2.2010.TS.XviD-TA&amp;tr=udp%3A%2F%2Ftracker.openbittorrent.com%3A80&amp;tr=udp%3A%2F%2Fopen.demonii.com%3A1337&amp;tr=udp%3A%2F%2Ftracker.coppersurfer.tk%3A6969&amp;tr=udp%3A%2F%2Fexodus.desync.com%3A6969","seeders":0,"leechers":0,"uploader":"TvTeam","files":5,"time":1281076463,"description":". \n  &lt;a href=&quot;\nhttp://www.torrentday.com/&quot; rel=&quot;nofollow&quot; target=&quot;_NEW&quot;&gt;\nhttp://www.torrentday.com/&lt;/a&gt;        :     The Hottest Private Tracker On The Net!!!\n\n\n               www . TorrentDay . Com \n(((((((((((((= Enjoy No RAR releases =))))))))))))))))))))\n\n\n...................................NFO:....................................\n\n.Cats.And.Dogs.2.2010.TS.XviD-TA\n\n[img]http://trackeraccess.org/covers/pics/7ca47910cf6d13f1c5a172774c67e0e8.png[/img]\n\nPlot:\nIn the age-old battle between cats and dogs, one crazed feline has taken things a paw too far. Kitty Galore, formerly an agent for cat spy organization MEOWS, has gone rogue and hatched a diabolical plan to not only bring her canine enemies to heel, but take down her former kitty comrades and make the world her scratching post. Faced with this unprecedented threat, cats and dogs will be forced to join forces for the first time in history in an unlikely alliance to save themselves -- and their humans.\n &lt;a href=&quot;\nhttp://www.imdb.com/title/tt1287468/&quot; rel=&quot;nofollow&quot; target=&quot;_NEW&quot;&gt;\nhttp://www.imdb.com/title/tt1287468/&lt;/a&gt;\n\n\nComplete name                    : Cats.And.Dogs.2.2010.TS.XviD-TA.avi\n\nSources: \nAudio                            : Ours\nVideo                            : Relizlab\n\nFormat                           : AVI\nFormat/Info                      : Audio Video Interleave\nFile size                        : 712 MiB\nDuration                         : 1h 13mn\nOverall bit rate                 : 1 347 Kbps\nWriting library                  : VirtualDub build 32661/release\n\nVideo\nID                               : 0\nFormat                           : MPEG-4 Visual\nFormat profile                   : AdvancedSimple@L5\nFormat settings, BVOP            : Yes\nFormat settings, QPel            : No\nFormat settings, GMC             : No warppoints\nFormat settings, Matrix          : Default (H.263)\nMuxing mode                      : Packed bitstream\nCodec ID                         : XVID\nCodec ID/Hint                    : XviD\nDuration                         : 1h 13mn\nBit rate                         : 1 145 Kbps\nWidth                            : 640 pixels\nHeight                           : 276 pixels\nDisplay aspect ratio             : 2.35:1\nFrame rate                       : 25.000 fps\nResolution                       : 24 bits\nColorimetry                      : 4:2:0\nScan type                        : Progressive\nBits/(Pixel*Frame)               : 0.259\nStream size                      : 606 MiB (85%)\nWriting library                  : XviD 1.2.1 (UTC 2008-12-04)\n\nAudio\nID                               : 1\nFormat                           : MPEG Audio\nFormat version                   : Version 1\nFormat profile                   : Layer 3\nCodec ID                         : 55\nCodec ID/Hint                    : MP3\nDuration                         : 1h 13mn\nBit rate mode                    : Constant\nBit rate                         : 192 Kbps\nChannel(s)                       : 2 channels\nSampling rate                    : 48.0 KHz\nResolution                       : 16 bits\nVideo delay                      : 16ms\nStream size                      : 102 MiB (14%)\nAlignment                        : Split accross interleaves\nInterleave, duration             : 40 ms (1.00 video frame)\nInterleave, preload duration     : 1000 ms\n\n\n\nNotes: (Thanks to LU and Company for Syncing the Audio)\n\nNEEDS: We are looking for Audio Syncers and any other Exclusive CAM sources. Both Audio and Video\nAll deotting done bt &quot;dedots crew&quot; find us on irc Efnet channel #ddcrew\n\nContact us: &lt;a class=&quot;__cf_email__&quot; href=&quot;/cdn-cgi/l/email-protection&quot; data-cfemail=&quot;394d58664b5e79514c4a5154585055175a5654&quot;&gt;[email&amp;#160;protected]&lt;/a&gt;&lt;script data-cfhash='f9e31' type=&quot;text/javascript&quot;&gt;\n/* &lt;![CDATA[ */!function(){try{var t=&quot;currentScript&quot;in document?document.currentScript:function(){for(var t=document.getElementsByTagName(&quot;script&quot;),e=t.length;e--;)if(t[e].getAttribute(&quot;data-cfhash&quot;))return t[e]}();if(t&amp;&amp;t.previousSibling){var e,r,n,i,c=t.previousSibling,a=c.getAttribute(&quot;data-cfemail&quot;);if(a){for(e=&quot;&quot;,r=parseInt(a.substr(0,2),16),n=2;a.length-n;n+=2)i=parseInt(a.substr(n,2),16)^r,e+=String.fromCharCode(i);e=document.createTextNode(e),c.parentNode.replaceChild(e,c)}t.parentNode.removeChild(t);}}catch(u){}}()/* ]]&gt; */&lt;/script&gt;\n\nGreetz: IMAGiNE - PrisM - KINGDOM - LU - SLUGGER - Relizlab - ELEKTRI4KA\nand all those that contribute... Spanks\n\nScreens:\n\nEnjoy,\nTA-rg","torrent":{"xt":"urn:btih:6758a198d70d85bdeaa721f4ee2717a60d1f43c2","amp;dn":"Cats.And.Dogs.2.2010.TS.XviD-TA","amp;tr":["udp%3A%2F%2Ftracker.openbittorrent.com%3A80","udp%3A%2F%2Fopen.demonii.com%3A1337","udp%3A%2F%2Ftracker.coppersurfer.tk%3A6969","udp%3A%2F%2Fexodus.desync.com%3A6969"],"infoHash":"6758a198d70d85bdeaa721f4ee2717a60d1f43c2","infoHashBuffer":{"type":"Buffer","data":[103,88,161,152,215,13,133,189,234,167,33,244,238,39,23,166,13,31,67,194]},"announce":[],"urlList":[]}}